<svg width="20" height="20" viewBox="0 0 20 20" fill="none" xmlns="http://www.w3.org/2000/svg">
<path fill-rule="evenodd" clip-rule="evenodd" d="M11.4458 1.36104C10.5145 0.574966 9.15213 0.574967 8.22082 1.36104L7.37265 2.07692C6.97682 2.41102 6.48698 2.61394 5.97083 2.65759L4.86488 2.75111C3.6505 2.85381 2.68714 3.81717 2.58444 5.03155L2.49092 6.1375C2.44727 6.65365 2.24435 7.14349 1.91025 7.53934L1.19437 8.38749C0.408294 9.3188 0.408296 10.6812 1.19437 11.6125L1.91025 12.4607C2.24435 12.8565 2.44727 13.3464 2.49092 13.8625L2.58444 14.9685C2.68714 16.1829 3.6505 17.1462 4.86488 17.2489L5.97083 17.3424C6.48698 17.3861 6.97682 17.589 7.37267 17.9231L8.22082 18.639C9.15213 19.425 10.5145 19.425 11.4458 18.639L12.294 17.9231C12.6898 17.589 13.1797 17.3861 13.6958 17.3424L14.8018 17.2489C16.0162 17.1462 16.9796 16.1829 17.0822 14.9685L17.1757 13.8625C17.2195 13.3464 17.4223 12.8565 17.7565 12.4607L18.4723 11.6125C19.2583 10.6812 19.2583 9.3188 18.4723 8.38749L17.7565 7.53932C17.4223 7.14349 17.2195 6.65365 17.1757 6.1375L17.0822 5.03155C16.9796 3.81717 16.0162 2.85381 14.8018 2.75111L13.6958 2.65759C13.1797 2.61394 12.6898 2.41102 12.294 2.07692L11.4458 1.36104ZM14.3793 8.29555C14.8187 7.85621 14.8187 7.1439 14.3793 6.70456C13.9401 6.26521 13.2277 6.26521 12.7883 6.70456L8.58387 10.9091L6.87937 9.20456C6.44003 8.76521 5.72772 8.76521 5.28838 9.20456C4.84903 9.6439 4.84903 10.3562 5.28838 10.7956L7.78838 13.2955C8.22772 13.7349 8.94003 13.7349 9.37937 13.2955L14.3793 8.29555Z" fill="#079404"/>
</svg>
